<svg width="16" height="20" viewBox="0 0 16 20" fill="none" xmlns="http://www.w3.org/2000/svg">
<path fill-rule="evenodd" clip-rule="evenodd" d="M-8.57694e-06 0.999978C-8.57694e-06 0.447694 0.447707 -2.14577e-05 0.999991 -2.14577e-05H15C15.5523 -2.14577e-05 16 0.447695 16 0.999979V18.5C15.1716 18.5 14.5 19.1715 14.5 19.9999H13.5C13.4999 19.1715 12.8284 18.5 12 18.5C11.1716 18.5 10.5 19.1715 10.5 19.9999H9.49999C9.49994 19.1715 8.82839 18.5 7.99999 18.5C7.17159 18.5 6.50004 19.1715 6.49999 19.9999H5.49999C5.49995 19.1715 4.82839 18.5 3.99999 18.5C3.17159 18.5 2.50004 19.1715 2.49999 19.9999H1.49999C1.49995 19.1715 0.82839 18.5 -8.57694e-06 18.5V0.999978ZM9.4163 11.7883C8.55356 12.3443 7.47034 12.5935 6.3296 12.3827C4.52743 12.0472 3.08952 10.5326 2.85946 8.71133C2.49519 5.82604 4.94921 3.42003 7.85378 3.88014C9.65595 4.16771 11.1034 5.64391 11.4006 7.43643C11.5827 8.54837 11.3239 9.57404 10.7871 10.4272L12.896 12.5264C13.2699 12.9003 13.2699 13.5138 12.896 13.8876C12.5126 14.271 11.8991 14.271 11.5252 13.8972L9.4163 11.7883ZM4.70581 8.05875C4.70581 6.75993 5.75993 5.70581 7.05875 5.70581C8.35758 5.70581 9.41169 6.75993 9.41169 8.05875C9.41169 9.35758 8.35758 10.4117 7.05875 10.4117C5.75993 10.4117 4.70581 9.35758 4.70581 8.05875Z" fill="white"/>
</svg>
